#!OML:ASF E:\emotionWalksFemale\Project 1\Capture day 1\Session 1\Female1.ASF
:FULLY-SPECIFIED
:DEGREES
252
root 9.19784 13.4402 19.1336 -144.599 -5.85793 -179.28
lowerback 31.7429 2.21859 0.690705
upperback 2.42448 2.47146 0.879683
thorax -13.8342 0.765479 -0.338069
lowerneck -11.5996 -4.41044 -9.94601
upperneck -21.4782 -6.87083 8.93786
head -3.98445 -4.44417 4.54243
rclavicle -7.95139e-015 1.43125e-014
rhumerus 36.0914 4.63374 -48.9353
rradius 53.9584
rwrist -5.32203
rhand -14.5745 -58.1817
rfingers 7.12502
rthumb 11.5751 -87.842
lclavicle -7.95139e-015 1.43125e-014
lhumerus 50.9833 -1.83865 67.3376
lradius 42.3634
lwrist 17.7905
lhand -22.5278 -61.439
lfingers 7.12502
lthumb 3.89906 -31.495
rfemur -54.7889 -0.346209 30.5701
rtibia 76.1254
rfoot -29.9037 -21.8592
rtoes -4.33158
lfemur -61.1124 2.31507 -23.1363
ltibia 79.7675
lfoot -32.7406 7.97412
ltoes -30.1589
253
root 9.19311 13.5095 18.9721 -145.132 -5.94273 -179.677
lowerback 31.0241 2.14782 0.551526
upperback 2.39666 2.34785 0.791408
thorax -13.5574 0.734942 -0.298097
lowerneck -12.2918 -4.58048 -9.84151
upperneck -20.8099 -7.08577 8.60152
head -3.67899 -4.519 4.36038
rclavicle -3.65764e-014 4.37326e-015
rhumerus 39.6322 2.30569 -47.7947
rradius 55.4002
rwrist -7.40882
rhand -15.7808 -57.5303
rfingers 7.12502
rthumb 10.4117 -87.2525
lclavicle -3.65764e-014 4.37326e-015
lhumerus 55.6949 -0.869284 65.9757
lradius 43.2671
lwrist 19.1395
lhand -22.4266 -61.6274
lfingers 7.12502
lthumb 3.99683 -31.6851
rfemur -52.8562 -0.543044 30.0227
rtibia 74.9067
rfoot -29.2631 -21.6141
rtoes -4.3025
lfemur -59.1692 2.00391 -23.2365
ltibia 78.7147
lfoot -32.3388 7.60534
ltoes -31.1951
254
root 9.18974 13.5764 18.7997 -145.525 -5.88857 -179.907
lowerback 30.0637 2.1162 0.330379
upperback 2.33854 2.26583 0.735745
thorax -13.209 0.733337 -0.192053
lowerneck -12.9326 -4.65433 -9.77038
upperneck -20.1484 -7.17535 8.20043
head -3.39926 -4.52852 4.17115
rclavicle 3.57812e-015 -1.19271e-015
rhumerus 42.9098 0.259074 -46.8381
rradius 56.9747
rwrist -8.90352
rhand -16.6277 -56.795
rfingers 7.12502
rthumb 9.59458 -86.5565
lclavicle 3.57812e-015 -1.19271e-015
lhumerus 60.2297 0.365543 64.6111
lradius 44.1894
lwrist 20.0579
lhand -21.9213 -59.6708
lfingers 7.12502
lthumb 4.48476 -29.7383
rfemur -51.0131 -0.549032 29.6208
rtibia 73.6049
rfoot -28.3948 -21.5893
rtoes -5.99947
lfemur -57.335 1.95979 -23.3299
ltibia 77.5809
lfoot -31.8921 7.65983
ltoes -33.3207
255
root 9.18444 13.6574 18.6106 -145.9 -5.85589 -180.042
lowerback 29.0601 2.0696 0.170824
upperback 2.58881 2.19956 0.709995
thorax -13.2498 0.74076 -0.0832647
lowerneck -13.3843 -4.7471 -9.84023
upperneck -19.5617 -7.26361 7.93419
head -3.15989 -4.53405 4.05714
rclavicle -1.59028e-015 -9.54166e-015
rhumerus 46.634 -1.70693 -45.3522
rradius 58.0052
rwrist -10.8804
rhand -16.9543 -57.0083
rfingers 7.12502
rthumb 9.27941 -86.7841
lclavicle -1.59028e-015 -9.54166e-015
lhumerus 64.0441 1.63476 63.2825
lradius 45.5392
lwrist 20.86
lhand -22.1736 -61.933
lfingers 7.12502
lthumb 4.24109 -31.9955
rfemur -49.0969 -0.579834 29.3631
rtibia 72.1773
rfoot -27.2582 -21.2871
rtoes -5.76717
lfemur -55.565 1.99775 -23.294
ltibia 76.238
lfoot -31.2998 7.40816
ltoes -34.5277
256
root 9.17352 13.7483 18.405 -146.266 -5.96658 -180.263
lowerback 28.2395 1.96396 0.231052
upperback 2.37648 2.12893 0.640172
thorax -13.061 0.729037 -0.160616
lowerneck -13.7933 -4.91977 -10.0221
upperneck -19.0379 -7.42706 7.84288
head -2.9279 -4.57846 4.01676
rclavicle -1.19271e-015 -3.97569e-016
rhumerus 49.244 -3.59528 -44.2646
rradius 59.7945
rwrist -12.1745
rhand -17.2264 -56.8241
rfingers 7.12502
rthumb 9.01688 -86.6114
lclavicle -1.19271e-015 -3.97569e-016
lhumerus 66.8514 2.81107 62.0439
lradius 47.9636
lwrist 21.7735
lhand -22.2819 -61.0379
lfingers 7.12502
lthumb 4.13659 -31.0984
rfemur -47.1691 -0.874802 29.1168
rtibia 70.6137
rfoot -26.3107 -20.9873
rtoes -5.47381
lfemur -53.6039 1.90397 -23.3063
ltibia 74.719
lfoot -29.8963 7.69144
ltoes -35.6088
257
root 9.16007 13.8474 18.1804 -146.724 -6.07592 -180.471
lowerback 27.6319 1.84489 0.268861
upperback 2.07319 2.03786 0.565258
thorax -13.0892 0.708414 -0.229253
lowerneck -14.0329 -4.98349 -9.93604
upperneck -18.6273 -7.51332 7.53378
head -2.78137 -4.59782 3.87941
rclavicle -5.96354e-015 -1.94809e-014
rhumerus 51.787 -5.39527 -43.2025
rradius 61.3596
rwrist -13.363
rhand -17.4067 -55.9571
rfingers 7.12502
rthumb 8.84286 -85.7518
lclavicle -5.96354e-015 -1.94809e-014
lhumerus 69.4874 3.95245 61.3838
lradius 50.2625
lwrist 21.6179
lhand -21.1031 -62.06
lfingers 7.12502
lthumb 5.27477 -32.1457
rfemur -45.0779 -1.24205 28.8792
rtibia 68.803
rfoot -25.133 -20.9633
rtoes -6.29369
lfemur -51.2887 1.86653 -23.3134
ltibia 72.9775
lfoot -27.0088 8.346
ltoes -32.9964
258
root 9.14575 13.9492 17.9356 -147.413 -6.08459 -180.642
lowerback 26.8313 1.83629 0.164258
upperback 2.13841 2.00671 0.588119
thorax -12.5892 0.71115 -0.114677
lowerneck -14.0336 -4.93522 -10.0649
upperneck -18.9374 -7.51818 7.39733
head -2.88287 -4.61321 3.87242
rclavicle 3.97569e-015 5.56597e-015
rhumerus 54.6814 -7.559 -42.2168
rradius 62.9679
rwrist -14.1824
rhand -16.6144 -54.3456
rfingers 7.12502
rthumb 9.60735 -84.1066
lclavicle 3.97569e-015 5.56597e-015
lhumerus 69.7248 5.16673 61.4638
lradius 55.0016
lwrist 20.19
lhand -19.6181 -61.0038
lfingers 7.12502
lthumb 6.70851 -31.13
rfemur -42.4095 -1.68062 28.6696
rtibia 66.7037
rfoot -23.504 -20.797
rtoes -6.2086
lfemur -48.5426 1.9427 -23.2486
ltibia 71.0497
lfoot -25.7753 7.30836
ltoes -30.434
259
root 9.13107 14.054 17.6751 -148.144 -6.06876 -180.737
lowerback 26.4462 1.75889 0.143242
upperback 1.73051 1.95681 0.513111
thorax -12.8555 0.711628 -0.171579
lowerneck -13.2166 -4.82912 -10.2682
upperneck -19.1188 -7.35428 7.5543
head -3.05197 -4.49881 3.99175
rclavicle 1.15295e-014 -4.77083e-015
rhumerus 56.6941 -9.13113 -41.5106
rradius 64.5585
rwrist -14.851
rhand -16.3062 -53.3373
rfingers 7.12502
rthumb 9.90479 -83.0843
lclavicle 1.15295e-014 -4.77083e-015
lhumerus 71.9898 6.42861 60.1016
lradius 56.879
lwrist 20.1608
lhand -20.869 -63.1408
lfingers 7.12502
lthumb 5.50082 -33.2322
rfemur -39.3994 -2.21867 28.5608
rtibia 64.279
rfoot -21.448 -20.5501
rtoes -6.58554
lfemur -45.7114 2.11459 -23.123
ltibia 68.9415
lfoot -24.2449 6.65264
ltoes -31.0669
260
root 9.11463 14.1655 17.4037 -148.75 -5.94265 -180.758
lowerback 26.3791 1.79361 0.0232877
upperback 0.93682 2.06472 0.449714
thorax -13.7534 0.799035 -0.232191
lowerneck -12.5027 -4.77853 -10.1381
upperneck -18.657 -7.24374 7.30683
head -3.03583 -4.37683 3.8985
rclavicle 3.26007e-014 3.18055e-015
rhumerus 58.1258 -10.4753 -40.7922
rradius 65.9553
rwrist -15.1759
rhand -15.8206 -52.111
rfingers 7.12502
rthumb 10.3732 -81.8352
lclavicle 3.26007e-014 3.18055e-015
lhumerus 73.4925 7.46247 59.0341
lradius 58.0061
lwrist 19.3738
lhand -21.4289 -63.854
lfingers 7.12502
lthumb 4.96021 -33.932
rfemur -36.5054 -2.72262 28.4314
rtibia 61.637
rfoot -19.4807 -20.0573
rtoes -7.40416
lfemur -42.9672 2.53003 -23.0822
ltibia 66.6248
lfoot -22.4862 6.58999
ltoes -34.4861
261
root 9.08999 14.2882 17.1134 -149.76 -6.11758 -181.045
lowerback 25.7539 1.682 0.0693417
upperback 0.975991 1.92783 0.358015
thorax -13.3578 0.738597 -0.299212
lowerneck -12.2213 -4.68375 -9.91704
upperneck -18.6873 -7.16781 7.08516
head -3.10939 -4.33344 3.80653
rclavicle -5.56597e-015 1.07344e-014
rhumerus 60.2875 -12.502 -40.3926
rradius 67.231
rwrist -15.2023
rhand -15.534 -50.8231
rfingers 7.12502
rthumb 10.6496 -80.5332
lclavicle -5.56597e-015 1.07344e-014
lhumerus 76.7171 8.75656 59.0904
lradius 58.3973
lwrist 18.3814
lhand -21.3405 -63.1326
lfingers 7.12502
lthumb 5.04554 -33.2127
rfemur -33.0081 -3.76368 28.0969
rtibia 58.7609
rfoot -17.8986 -19.1794
rtoes -6.42356
lfemur -39.5266 2.62313 -23.0839
ltibia 63.969
lfoot -20.7089 5.76082
ltoes -32.097
262
root 9.06629 14.4137 16.8065 -150.563 -6.07683 -181.22
lowerback 25.2279 1.70289 -0.111442
upperback 0.659334 1.9472 0.32596
thorax -13.4443 0.777108 -0.235476
lowerneck -12.3116 -4.75331 -10.009
upperneck -18.0311 -7.16303 6.99268
head -2.89667 -4.27893 3.76256
rclavicle 1.15295e-014 -1.59028e-014
rhumerus 61.622 -14.0869 -39.5633
rradius 68.6742
rwrist -15.4838
rhand -15.6285 -49.3963
rfingers 7.12502
rthumb 10.5586 -79.111
lclavicle 1.15295e-014 -1.59028e-014
lhumerus 78.8054 9.8924 58.5372
lradius 58.6341
lwrist 18.3242
lhand -20.6738 -62.7563
lfingers 7.12502
lthumb 5.68928 -32.8527
rfemur -29.6989 -4.57722 27.7097
rtibia 55.6822
rfoot -15.7972 -18.3406
rtoes -5.08678
lfemur -36.1291 2.92317 -23.0071
ltibia 61.0543
lfoot -18.4638 4.94252
ltoes -29.3329
263
root 9.04018 14.5432 16.4841 -151.391 -6.07292 -181.364
lowerback 24.4492 1.73363 -0.226269
upperback 0.556412 1.97782 0.281665
thorax -13.1347 0.811162 -0.216396
lowerneck -13.0138 -4.81297 -9.81183
upperneck -17.1491 -7.1618 6.7236
head -2.5444 -4.24754 3.59246
rclavicle 1.03368e-014 -7.55382e-015
rhumerus 62.7932 -15.8792 -38.4505
rradius 69.8626
rwrist -15.9701
rhand -15.6932 -47.8843
rfingers 7.12502
rthumb 10.4961 -77.6023
lclavicle 1.03368e-014 -7.55382e-015
lhumerus 80.5338 11.4706 57.024
lradius 58.8229
lwrist 19.3174
lhand -19.7593 -62.7286
lfingers 7.12502
lthumb 6.5722 -32.8505
rfemur -26.2055 -5.43057 27.283
rtibia 52.3347
rfoot -13.0269 -17.5751
rtoes -4.28092
lfemur -32.5342 3.27461 -22.8626
ltibia 57.8259
lfoot -15.8739 3.94089
ltoes -28.9314
264
root 9.01619 14.6758 16.1474 -152.162 -6.10884 -181.416
lowerback 23.691 1.71325 -0.210448
upperback 0.0590757 1.99955 0.103892
thorax -13.2831 0.83926 -0.429368
lowerneck -12.6607 -4.75501 -9.1449
upperneck -16.0214 -7.06101 6.29134
head -2.5766 -4.12818 3.60492
rclavicle -1.86858e-014 -1.39149e-014
rhumerus 62.9754 -17.0815 -36.9165
rradius 70.8354
rwrist -16.6155
rhand -15.5848 -46.6453
rfingers 7.12502
rthumb 10.6007 -76.3579
lclavicle -1.86858e-014 -1.39149e-014
lhumerus 80.9393 12.9181 54.177
lradius 59.5456
lwrist 20.9885
lhand -19.4169 -62.6516
lfingers 7.12502
lthumb 6.90268 -32.7842
rfemur -22.6226 -6.24592 26.9089
rtibia 48.6894
rfoot -9.42901 -16.7372
rtoes -2.98863
lfemur -28.934 3.68873 -22.5717
ltibia 54.314
lfoot -12.6284 3.10211
ltoes -27.5579
265
root 8.99487 14.8147 15.7938 -152.775 -6.04683 -181.359
lowerback 22.4088 1.6692 -0.344631
upperback -0.205099 1.96472 0.174279
thorax -12.8742 0.858688 -0.236444
lowerneck -13.5897 -4.78103 -9.30076
upperneck -14.6328 -6.86014 6.39772
head -1.94185 -3.96412 3.58711
rclavicle -4.77083e-015 3.45885e-014
rhumerus 63.6114 -18.2623 -35.1327
rradius 71.5957
rwrist -17.4918
rhand -15.2002 -45.8335
rfingers 7.12502
rthumb 10.9716 -75.5268
lclavicle -4.77083e-015 3.45885e-014
lhumerus 81.4939 14.7159 52.2471
lradius 59.7777
lwrist 21.7814
lhand -18.926 -62.7571
lfingers 7.12502
lthumb 7.37661 -32.9057
rfemur -19.1046 -6.81913 26.5379
rtibia 44.7236
rfoot -5.36007 -15.8733
rtoes -1.77295
lfemur -25.386 4.20791 -22.1822
ltibia 50.4883
lfoot -8.8714 2.47865
ltoes -28.0224
266
root 8.97161 14.9544 15.4269 -153.501 -5.97552 -181.402
lowerback 21.1233 1.72435 -0.461992
upperback -0.807413 2.0769 0.14959
thorax -12.8423 0.946811 -0.215326
lowerneck -12.437 -4.82499 -9.29629
upperneck -13.7492 -6.76635 6.4599
head -1.82454 -3.82292 3.61539
rclavicle -3.1408e-014 7.55382e-015
rhumerus 63.1901 -19.0577 -32.8224
rradius 71.7442
rwrist -18.5439
rhand -14.3635 -44.7316
rfingers 7.12502
rthumb 11.7786 -74.3804
lclavicle -3.1408e-014 7.55382e-015
lhumerus 81.3524 15.7304 50.2581
lradius 60.0414
lwrist 22.5258
lhand -18.5897 -63.1168
lfingers 7.12502
lthumb 7.70123 -33.2771
rfemur -15.2859 -7.1095 25.9548
rtibia 40.476
rfoot -1.3292 -15.1768
rtoes -1.70143
lfemur -21.4734 4.55022 -21.8263
ltibia 46.3541
lfoot -5.79737 1.04954
ltoes -29.7893
